<svg data-name="그룹 8060" xmlns="http://www.w3.org/2000/svg" width="60" height="60" viewBox="0 0 60 60">
    <defs>
        <clipPath id="muyfrf2tka">
            <path data-name="사각형 6302" style="fill:none" d="M0 0h60v60.001H0z"/>
        </clipPath>
    </defs>
    <g data-name="그룹 8059" style="clip-path:url(#muyfrf2tka)">
        <path data-name="패스 3169" d="M30 11.2h.492a.984.984 0 0 0 .76-.358.37.37 0 0 1 .285-.134h.738a2.283 2.283 0 0 1 2.033 2.462v12.948c0 .094-.011.217-.024.325a2.712 2.712 0 0 1-.139.6 2.279 2.279 0 0 1-.713 1 4 4 0 0 1-.509.353c-.093.055-.187.108-.281.16s-.173.1-.259.146a2.7 2.7 0 0 0-.283.185 1.054 1.054 0 0 0-.2.2.694.694 0 0 0-.128.276 1.566 1.566 0 0 0-.029.31l-.006.755v1.991s.016.18.149.18h.089a.046.046 0 0 1 .046.046v.071a.046.046 0 0 1-.046.046h-.03l-.043 3.773a.209.209 0 0 1-.21.207h-3.383a.209.209 0 0 1-.21-.207l-.043-3.773h-.03a.046.046 0 0 1-.046-.046v-.071a.046.046 0 0 1 .046-.046h.091c.134 0 .149-.18.149-.18v-1.996l-.006-.755a1.566 1.566 0 0 0-.029-.31.693.693 0 0 0-.128-.276 1.053 1.053 0 0 0-.2-.2 2.7 2.7 0 0 0-.283-.185c-.086-.05-.173-.1-.259-.146s-.188-.105-.281-.16a4 4 0 0 1-.509-.353 2.279 2.279 0 0 1-.713-1 2.712 2.712 0 0 1-.139-.6c-.012-.108-.02-.216-.024-.325s0-.2 0-.294V13.17a2.283 2.283 0 0 1 2.033-2.462h.738a.37.37 0 0 1 .285.134.984.984 0 0 0 .76.358z"/>
        <path data-name="패스 3170" d="M24.381 45.151v.025a6.25 6.25 0 0 1 5.612 6.064h.023a6.25 6.25 0 0 1 5.612-6.064v-.025a6.249 6.249 0 0 1-5.612-6.064h-.023a6.25 6.25 0 0 1-5.612 6.064"/>
        <path data-name="패스 3171" d="M57.815 24.718 35.283 2.186a7.479 7.479 0 0 0-10.566 0L2.185 24.718a7.48 7.48 0 0 0 0 10.566l22.532 22.531a7.477 7.477 0 0 0 10.566 0l22.532-22.531a7.48 7.48 0 0 0 0-10.566M27.459 55.073 4.928 32.541a3.592 3.592 0 0 1 0-5.081L27.459 4.929a3.593 3.593 0 0 1 5.082 0L55.072 27.46a3.593 3.593 0 0 1 0 5.081L32.541 55.073a3.68 3.68 0 0 1-5.082 0"/>
    </g>
</svg>
